<svg xmlns="http://www.w3.org/2000/svg" height="48" viewBox="0 -960 960 960" width="48"><path d="M104.509-225q-20.14 0-32.825-13.113Q59-251.225 59-270v-420q0-19.2 12.86-32.6 12.86-13.4 33-13.4Q124-736 137-722.6t13 32.6v420q0 18.775-13.175 31.887Q123.649-225 104.509-225ZM727-435H295q-20.75 0-33.375-13.158t-12.625-32Q249-499 261.625-512.5T295-526h432L608-647q-15-13-14.5-31.8T608-711q13.289-13 31.144-13Q657-724 672-711l197 198q6 6.16 10.5 15.313 4.5 9.154 4.5 17.9 0 8.747-4.5 17.767T869-448L672-250q-15.25 14-33.283 14.5t-30.875-12.717Q593-261 593-280.767q0-19.766 14-34.233l120-120Z"/></svg>